<svg width="220" height="60" viewBox="0 0 220 60" fill="none" xmlns="http://www.w3.org/2000/svg">
<rect width="220" height="60" fill="#131415"/>
<g clip-path="url(#clip0_690_56)">
<rect width="1280" height="7213" transform="translate(-310 -552)" fill="white"/>
<rect width="220" height="60" rx="3" fill="black"/>
<path fill-rule="evenodd" clip-rule="evenodd" d="M54.7812 14.4229C53.6689 15.6239 52.6957 17.5358 52.9567 19.3747C54.8862 19.5137 56.8557 18.4608 58.0569 17.1088C59.2562 15.7549 60.0674 13.8739 59.8464 12C58.117 12.064 56.0225 13.07 54.7812 14.4229ZM66.9857 35.4706C66.7021 35.3609 62.4336 33.7106 62.3879 29.0034C62.3444 25.0845 65.7044 23.1374 66.0717 22.9245C66.0844 22.9172 66.0935 22.9119 66.0988 22.9087C64.0793 20.1597 60.9316 19.7828 59.8103 19.7398C58.1739 19.5857 56.5858 20.1683 55.2879 20.6444C54.4628 20.9471 53.755 21.2067 53.2267 21.2067C52.6396 21.2067 51.9133 20.9382 51.098 20.6368C50.0312 20.2425 48.812 19.7918 47.5534 19.8128C44.6327 19.8538 41.9431 21.3937 40.4397 23.8256C37.407 28.7214 39.6635 35.9762 42.6182 39.95C44.0646 41.894 45.787 44.0779 48.0465 43.9979C49.0579 43.9607 49.777 43.6753 50.5206 43.3801C51.3787 43.0395 52.2694 42.6859 53.6798 42.6859C55.0265 42.6859 55.8781 43.029 56.6968 43.3587C57.4792 43.6739 58.2315 43.9769 59.3572 43.9569C61.6997 43.9179 63.1841 41.977 64.6184 40.028C66.1726 37.9129 66.8694 35.8602 66.9846 35.5209C66.9923 35.4981 66.9974 35.483 67 35.4762C66.9986 35.4755 66.9937 35.4737 66.9857 35.4706Z" fill="white"/>
<path d="M84.8381 21C86.8324 21 87.9862 19.7631 87.9862 17.7177C87.9862 15.6818 86.8324 14.4545 84.9052 14.4545H82.7191V21H84.8381ZM83.7067 20.1371V15.3175H84.8445C86.2763 15.3175 87.0146 16.174 87.0146 17.7177C87.0146 19.2678 86.2763 20.1371 84.7837 20.1371H83.7067ZM94.8999 17.7273C94.8999 15.6339 93.6471 14.3651 91.9532 14.3651C90.2529 14.3651 89.0033 15.6339 89.0033 17.7273C89.0033 19.8175 90.2529 21.0895 91.9532 21.0895C93.6471 21.0895 94.8999 19.8207 94.8999 17.7273ZM93.922 17.7273C93.922 19.3221 93.0782 20.1882 91.9532 20.1882C90.825 20.1882 89.9845 19.3221 89.9845 17.7273C89.9845 16.1325 90.825 15.2663 91.9532 15.2663C93.0782 15.2663 93.922 16.1325 93.922 17.7273ZM97.3337 21H98.3309L99.7084 16.0973H99.7595L101.137 21H102.131L103.949 14.4545H102.908L101.636 19.5266H101.575L100.248 14.4545H99.2194L97.893 19.5234H97.8323L96.5571 14.4545H95.5184L97.3337 21ZM110.133 14.4545H109.155V19.2614H109.094L105.764 14.4545H104.85V21H105.838V16.1996H105.898L109.225 21H110.133V14.4545ZM111.574 21H115.527V20.1499H112.561V14.4545H111.574V21ZM122.085 17.7273C122.085 15.6339 120.832 14.3651 119.138 14.3651C117.438 14.3651 116.188 15.6339 116.188 17.7273C116.188 19.8175 117.438 21.0895 119.138 21.0895C120.832 21.0895 122.085 19.8207 122.085 17.7273ZM121.107 17.7273C121.107 19.3221 120.263 20.1882 119.138 20.1882C118.01 20.1882 117.169 19.3221 117.169 17.7273C117.169 16.1325 118.01 15.2663 119.138 15.2663C120.263 15.2663 121.107 16.1325 121.107 17.7273ZM123.544 21L124.144 19.2678H126.701L127.299 21H128.347L125.992 14.4545H124.851L122.495 21H123.544ZM124.432 18.4368L125.397 15.6435H125.448L126.414 18.4368H124.432ZM131.411 21C133.406 21 134.559 19.7631 134.559 17.7177C134.559 15.6818 133.406 14.4545 131.478 14.4545H129.292V21H131.411ZM130.28 20.1371V15.3175H131.418C132.85 15.3175 133.588 16.174 133.588 17.7177C133.588 19.2678 132.85 20.1371 131.357 20.1371H130.28ZM143.855 17.7273C143.855 15.6339 142.602 14.3651 140.908 14.3651C139.208 14.3651 137.958 15.6339 137.958 17.7273C137.958 19.8175 139.208 21.0895 140.908 21.0895C142.602 21.0895 143.855 19.8207 143.855 17.7273ZM142.877 17.7273C142.877 19.3221 142.033 20.1882 140.908 20.1882C139.78 20.1882 138.94 19.3221 138.94 17.7273C138.94 16.1325 139.78 15.2663 140.908 15.2663C142.033 15.2663 142.877 16.1325 142.877 17.7273ZM150.369 14.4545H149.391V19.2614H149.331L146 14.4545H145.086V21H146.074V16.1996H146.135L149.462 21H150.369V14.4545ZM153.869 15.3047H155.908V21H156.892V15.3047H158.935V14.4545H153.869V15.3047ZM160.054 21H161.042V18.146H164.305V21H165.296V14.4545H164.305V17.299H161.042V14.4545H160.054V21ZM166.734 21H170.876V20.1499H167.721V18.146H170.623V17.299H167.721V15.3047H170.837V14.4545H166.734V21Z" fill="white"/>
<path d="M85.7713 44L86.8509 40.6832H92.0994L93.179 44H96.4744L91.4602 29.4545H87.4972L82.4759 44H85.7713ZM87.6321 38.2827L89.4219 32.7784H89.5355L91.3253 38.2827H87.6321ZM98.1683 48.0909H101.194V42.2528H101.286C101.705 43.1619 102.621 44.1776 104.383 44.1776C106.869 44.1776 108.808 42.2102 108.808 38.5597C108.808 34.8097 106.783 32.9489 104.39 32.9489C102.565 32.9489 101.691 34.0355 101.286 34.9233H101.151V33.0909H98.1683V48.0909ZM101.13 38.5455C101.13 36.5994 101.954 35.3565 103.424 35.3565C104.923 35.3565 105.718 36.6562 105.718 38.5455C105.718 40.4489 104.908 41.7699 103.424 41.7699C101.968 41.7699 101.13 40.4915 101.13 38.5455ZM110.825 48.0909H113.85V42.2528H113.942C114.362 43.1619 115.278 44.1776 117.039 44.1776C119.525 44.1776 121.464 42.2102 121.464 38.5597C121.464 34.8097 119.44 32.9489 117.046 32.9489C115.221 32.9489 114.347 34.0355 113.942 34.9233H113.808V33.0909H110.825V48.0909ZM113.786 38.5455C113.786 36.5994 114.61 35.3565 116.08 35.3565C117.579 35.3565 118.374 36.6562 118.374 38.5455C118.374 40.4489 117.565 41.7699 116.08 41.7699C114.624 41.7699 113.786 40.4915 113.786 38.5455ZM136.057 33.6378H139.005C138.962 31.0455 136.831 29.2557 133.593 29.2557C130.404 29.2557 128.067 31.017 128.081 33.6591C128.074 35.804 129.587 37.0327 132.044 37.6222L133.628 38.0199C135.212 38.4034 136.093 38.858 136.1 39.8381C136.093 40.9034 135.084 41.6278 133.522 41.6278C131.924 41.6278 130.773 40.8892 130.674 39.4332H127.698C127.776 42.5795 130.027 44.206 133.557 44.206C137.108 44.206 139.196 42.5085 139.203 39.8452C139.196 37.4233 137.371 36.1378 134.843 35.5696L133.536 35.2571C132.272 34.9659 131.213 34.4972 131.235 33.4531C131.235 32.5156 132.066 31.8267 133.571 31.8267C135.042 31.8267 135.944 32.4943 136.057 33.6378ZM147.018 33.0909H144.965V30.4773H141.94V33.0909H140.448V35.3636H141.94V41.0455C141.925 43.1832 143.381 44.2415 145.576 44.1491C146.357 44.1207 146.911 43.9645 147.217 43.8651L146.741 41.6136C146.592 41.642 146.272 41.7131 145.988 41.7131C145.384 41.7131 144.965 41.4858 144.965 40.6477V35.3636H147.018V33.0909ZM153.8 44.2131C157.11 44.2131 159.17 41.9474 159.17 38.5881C159.17 35.2074 157.11 32.9489 153.8 32.9489C150.491 32.9489 148.431 35.2074 148.431 38.5881C148.431 41.9474 150.491 44.2131 153.8 44.2131ZM153.815 41.8693C152.288 41.8693 151.506 40.4702 151.506 38.5668C151.506 36.6634 152.288 35.2571 153.815 35.2571C155.313 35.2571 156.094 36.6634 156.094 38.5668C156.094 40.4702 155.313 41.8693 153.815 41.8693ZM161.137 44H164.163V37.8281C164.163 36.4858 165.143 35.5625 166.478 35.5625C166.897 35.5625 167.472 35.6335 167.756 35.7259V33.0412C167.487 32.9773 167.11 32.9347 166.805 32.9347C165.583 32.9347 164.582 33.6449 164.184 34.9943H164.07V33.0909H161.137V44ZM173.784 44.2131C176.483 44.2131 178.301 42.8991 178.728 40.875L175.929 40.6903C175.624 41.5213 174.843 41.9545 173.834 41.9545C172.321 41.9545 171.363 40.9531 171.363 39.3267V39.3196H178.792V38.4886C178.792 34.7812 176.547 32.9489 173.664 32.9489C170.453 32.9489 168.373 35.2287 168.373 38.5952C168.373 42.054 170.425 44.2131 173.784 44.2131ZM171.363 37.4446C171.426 36.2017 172.371 35.2074 173.713 35.2074C175.027 35.2074 175.936 36.1449 175.944 37.4446H171.363Z" fill="white"/>
</g>
<defs>
<clipPath id="clip0_690_56">
<rect width="1280" height="7213" fill="white" transform="translate(-310 -552)"/>
</clipPath>
</defs>
</svg>
