<svg width="220" height="60" viewBox="0 0 220 60" fill="none" xmlns="http://www.w3.org/2000/svg">
<rect width="220" height="60" fill="#131415"/>
<g clip-path="url(#clip0_690_56)">
<rect width="1280" height="7213" transform="translate(-80 -552)" fill="white"/>
<rect width="220" height="60" rx="3" fill="black"/>
<path fill-rule="evenodd" clip-rule="evenodd" d="M55.5517 33.2178L35.45 44.3164C33.6737 45.2971 31.4387 44.6522 30.458 42.8759C30.1578 42.3322 30.0003 41.7212 30.0003 41.1001L30.0003 18.9032C30.0003 16.8742 31.6452 15.2293 33.6742 15.2293C34.2953 15.2293 34.9063 15.3868 35.45 15.6869L55.5517 26.7852C57.328 27.7659 57.973 30.001 56.9922 31.7773C56.6575 32.3836 56.1581 32.883 55.5517 33.2178Z" fill="url(#paint0_linear_690_56)"/>
<path fill-rule="evenodd" clip-rule="evenodd" d="M31.6786 44.5518L45.8548 29.7383L51.4088 35.5054L34.9702 44.5815C33.8655 45.1914 32.6375 45.1043 31.6786 44.5518Z" fill="url(#paint1_linear_690_56)"/>
<path fill-rule="evenodd" clip-rule="evenodd" d="M51.2675 24.4199L34.9703 15.4221C33.9211 14.8429 32.7608 14.8923 31.8253 15.3721L45.8522 29.742L51.2675 24.4199Z" fill="url(#paint2_linear_690_56)"/>
<path fill-rule="evenodd" clip-rule="evenodd" d="M30 22.5433L30.0287 17.9081C30.1772 16.7644 30.8881 15.8529 31.8243 15.3725L45.8537 29.7373L31.7285 44.5801C30.7228 44.023 30 42.9593 30 41.6485V22.5433Z" fill="url(#paint3_linear_690_56)"/>
<path d="M77.1488 16.5224H78.1619C77.9414 15.2472 76.8516 14.3651 75.4389 14.3651C73.745 14.3651 72.5082 15.6403 72.5082 17.7305C72.5082 19.8015 73.7099 21.0895 75.4837 21.0895C77.0721 21.0895 78.2067 20.0476 78.2067 18.3952V17.6506H75.6339V18.4656H77.2511C77.2287 19.5202 76.532 20.1882 75.4837 20.1882C74.3299 20.1882 73.4893 19.3157 73.4893 17.7241C73.4893 16.1388 74.3363 15.2663 75.4453 15.2663C76.3146 15.2663 76.9027 15.7457 77.1488 16.5224ZM79.4603 21H83.6024V20.1499H80.4479V18.146H83.3499V17.299H80.4479V15.3047H83.564V14.4545H79.4603V21ZM84.5604 15.3047H86.5994V21H87.5838V15.3047H89.6261V14.4545H84.5604V15.3047ZM94.1149 14.4545H93.1273V21H94.1149V14.4545ZM95.2303 15.3047H97.2694V21H98.2537V15.3047H100.296V14.4545H95.2303V15.3047ZM109.483 17.7273C109.483 15.6339 108.23 14.3651 106.536 14.3651C104.836 14.3651 103.586 15.6339 103.586 17.7273C103.586 19.8175 104.836 21.0895 106.536 21.0895C108.23 21.0895 109.483 19.8207 109.483 17.7273ZM108.505 17.7273C108.505 19.3221 107.661 20.1882 106.536 20.1882C105.408 20.1882 104.567 19.3221 104.567 17.7273C104.567 16.1325 105.408 15.2663 106.536 15.2663C107.661 15.2663 108.505 16.1325 108.505 17.7273ZM115.997 14.4545H115.019V19.2614H114.959L111.628 14.4545H110.714V21H111.702V16.1996H111.763L115.09 21H115.997V14.4545Z" fill="white"/>
<path d="M82.9091 34.1562H86.0341C85.6364 31.2798 83.1009 29.2557 79.8125 29.2557C75.9702 29.2557 73.0085 32.0256 73.0085 36.7415C73.0085 41.3438 75.7784 44.1989 79.8764 44.1989C83.5483 44.1989 86.169 41.8764 86.169 38.0483V36.2159H80.0824V38.5312H83.2074C83.1648 40.3352 81.9361 41.4787 79.8906 41.4787C77.5824 41.4787 76.1264 39.7528 76.1264 36.7131C76.1264 33.6875 77.6392 31.9759 79.8622 31.9759C81.446 31.9759 82.5185 32.7926 82.9091 34.1562ZM93.3512 44.2131C96.6609 44.2131 98.7205 41.9474 98.7205 38.5881C98.7205 35.2074 96.6609 32.9489 93.3512 32.9489C90.0415 32.9489 87.9819 35.2074 87.9819 38.5881C87.9819 41.9474 90.0415 44.2131 93.3512 44.2131ZM93.3654 41.8693C91.8384 41.8693 91.0572 40.4702 91.0572 38.5668C91.0572 36.6634 91.8384 35.2571 93.3654 35.2571C94.864 35.2571 95.6452 36.6634 95.6452 38.5668C95.6452 40.4702 94.864 41.8693 93.3654 41.8693ZM105.617 44.2131C108.926 44.2131 110.986 41.9474 110.986 38.5881C110.986 35.2074 108.926 32.9489 105.617 32.9489C102.307 32.9489 100.248 35.2074 100.248 38.5881C100.248 41.9474 102.307 44.2131 105.617 44.2131ZM105.631 41.8693C104.104 41.8693 103.323 40.4702 103.323 38.5668C103.323 36.6634 104.104 35.2571 105.631 35.2571C107.13 35.2571 107.911 36.6634 107.911 38.5668C107.911 40.4702 107.13 41.8693 105.631 41.8693ZM117.868 48.3182C120.986 48.3182 123.202 46.8977 123.202 44.1065V33.0909H120.198V34.9233H120.084C119.679 34.0355 118.792 32.9489 116.966 32.9489C114.573 32.9489 112.549 34.8097 112.549 38.5241C112.549 42.1534 114.516 43.8438 116.973 43.8438C118.713 43.8438 119.686 42.9702 120.084 42.0682H120.212V44.0639C120.212 45.5625 119.253 46.1449 117.939 46.1449C116.604 46.1449 115.929 45.5625 115.681 44.902L112.882 45.2784C113.245 46.9972 114.928 48.3182 117.868 48.3182ZM117.932 41.571C116.448 41.571 115.638 40.392 115.638 38.5099C115.638 36.6562 116.434 35.3565 117.932 35.3565C119.402 35.3565 120.226 36.5994 120.226 38.5099C120.226 40.4347 119.388 41.571 117.932 41.571ZM128.635 29.4545H125.61V44H128.635V29.4545ZM136.031 44.2131C138.729 44.2131 140.548 42.8991 140.974 40.875L138.175 40.6903C137.87 41.5213 137.089 41.9545 136.08 41.9545C134.567 41.9545 133.609 40.9531 133.609 39.3267V39.3196H141.038V38.4886C141.038 34.7812 138.793 32.9489 135.91 32.9489C132.7 32.9489 130.619 35.2287 130.619 38.5952C130.619 42.054 132.671 44.2131 136.031 44.2131ZM133.609 37.4446C133.673 36.2017 134.617 35.2074 135.96 35.2074C137.273 35.2074 138.183 36.1449 138.19 37.4446H133.609ZM147.698 44H150.773V39.2841H153.358C156.703 39.2841 158.65 37.2884 158.65 34.3835C158.65 31.4929 156.739 29.4545 153.436 29.4545H147.698V44ZM150.773 36.8196V31.9688H152.847C154.623 31.9688 155.482 32.9347 155.482 34.3835C155.482 35.8253 154.623 36.8196 152.861 36.8196H150.773ZM163.616 29.4545H160.59V44H163.616V29.4545ZM169.15 44.206C170.762 44.206 171.806 43.5028 172.339 42.4872H172.424V44H175.294V36.642C175.294 34.0426 173.092 32.9489 170.663 32.9489C168.049 32.9489 166.331 34.1989 165.912 36.1875L168.71 36.4148C168.916 35.6903 169.562 35.1577 170.649 35.1577C171.679 35.1577 172.268 35.6761 172.268 36.571V36.6136C172.268 37.3168 171.522 37.4091 169.626 37.5938C167.467 37.7926 165.528 38.517 165.528 40.9531C165.528 43.1122 167.069 44.206 169.15 44.206ZM170.017 42.1179C169.086 42.1179 168.419 41.6847 168.419 40.8537C168.419 40.0014 169.122 39.5824 170.187 39.4332C170.848 39.3409 171.927 39.1847 172.289 38.9432V40.1009C172.289 41.2443 171.345 42.1179 170.017 42.1179ZM179.118 48.0909C181.37 48.0909 182.563 46.9403 183.181 45.179L187.421 33.1051L184.218 33.0909L181.938 41.1023H181.824L179.566 33.0909H176.384L180.297 44.3125L180.12 44.7741C179.722 45.7969 178.962 45.8466 177.897 45.5199L177.215 47.7784C177.648 47.9631 178.351 48.0909 179.118 48.0909Z" fill="white"/>
</g>
<defs>
<linearGradient id="paint0_linear_690_56" x1="38.3846" y1="15.2293" x2="38.3846" y2="26.7262" gradientUnits="userSpaceOnUse">
<stop stop-color="#FBDA09"/>
<stop offset="1" stop-color="#FFBC00"/>
</linearGradient>
<linearGradient id="paint1_linear_690_56" x1="39.0994" y1="27.4851" x2="29.8984" y2="41.1086" gradientUnits="userSpaceOnUse">
<stop stop-color="#F2414E"/>
<stop offset="1" stop-color="#E02554"/>
</linearGradient>
<linearGradient id="paint2_linear_690_56" x1="29.5936" y1="22.6469" x2="38.6137" y2="34.5392" gradientUnits="userSpaceOnUse">
<stop stop-color="#28D781"/>
<stop offset="1" stop-color="#02F076"/>
</linearGradient>
<linearGradient id="paint3_linear_690_56" x1="31.5372" y1="42.5732" x2="43.118" y2="40.8143" gradientUnits="userSpaceOnUse">
<stop stop-color="#01E2FF"/>
<stop offset="1" stop-color="#01C4FF"/>
</linearGradient>
<clipPath id="clip0_690_56">
<rect width="1280" height="7213" fill="white" transform="translate(-80 -552)"/>
</clipPath>
</defs>
</svg>
