<svg width="24" height="24" viewBox="0 0 24 24" fill="none" xmlns="http://www.w3.org/2000/svg">
<g clip-path="url(#clip0_1194_2141)">
<path d="M12.0058 0.181641C7.07103 0.181641 5.6278 0.186731 5.34726 0.210003C4.33457 0.294183 3.70441 0.453632 3.01788 0.79544C2.48881 1.05816 2.07155 1.3627 1.65974 1.78959C0.909762 2.56811 0.45523 3.5259 0.29069 4.66441C0.210692 5.21712 0.18742 5.32985 0.182693 8.15304C0.180875 9.0941 0.182693 10.3326 0.182693 11.9938C0.182693 16.9246 0.188147 18.3664 0.211783 18.6464C0.293599 19.6318 0.448139 20.2518 0.775402 20.9299C1.40084 22.2281 2.59535 23.2026 4.00258 23.5662C4.48984 23.6917 5.028 23.7607 5.71889 23.7935C6.01161 23.8062 8.99515 23.8153 11.9805 23.8153C14.9659 23.8153 17.9513 23.8117 18.2367 23.7971C19.0367 23.7595 19.5012 23.6971 20.0148 23.5644C21.4311 23.1989 22.6038 22.239 23.242 20.9226C23.5629 20.2609 23.7256 19.6172 23.7993 18.6833C23.8153 18.4796 23.822 15.233 23.822 11.9907C23.822 8.74793 23.8147 5.5073 23.7987 5.30367C23.7242 4.35461 23.5614 3.71644 23.2302 3.04192C22.9584 2.48975 22.6566 2.0774 22.2184 1.65578C21.4364 0.908891 20.4801 0.45436 19.3405 0.290001C18.7883 0.210185 18.6783 0.18655 15.8529 0.181641H12.0058Z" fill="url(#paint0_radial_1194_2141)"/>
<path d="M12.0058 0.181641C7.07103 0.181641 5.6278 0.186731 5.34726 0.210003C4.33457 0.294183 3.70441 0.453632 3.01788 0.79544C2.48881 1.05816 2.07155 1.3627 1.65974 1.78959C0.909762 2.56811 0.45523 3.5259 0.29069 4.66441C0.210692 5.21712 0.18742 5.32985 0.182693 8.15304C0.180875 9.0941 0.182693 10.3326 0.182693 11.9938C0.182693 16.9246 0.188147 18.3664 0.211783 18.6464C0.293599 19.6318 0.448139 20.2518 0.775402 20.9299C1.40084 22.2281 2.59535 23.2026 4.00258 23.5662C4.48984 23.6917 5.028 23.7607 5.71889 23.7935C6.01161 23.8062 8.99515 23.8153 11.9805 23.8153C14.9659 23.8153 17.9513 23.8117 18.2367 23.7971C19.0367 23.7595 19.5012 23.6971 20.0148 23.5644C21.4311 23.1989 22.6038 22.239 23.242 20.9226C23.5629 20.2609 23.7256 19.6172 23.7993 18.6833C23.8153 18.4796 23.822 15.233 23.822 11.9907C23.822 8.74793 23.8147 5.5073 23.7987 5.30367C23.7242 4.35461 23.5614 3.71644 23.2302 3.04192C22.9584 2.48975 22.6566 2.0774 22.2184 1.65578C21.4364 0.908891 20.4801 0.45436 19.3405 0.290001C18.7883 0.210185 18.6783 0.18655 15.8529 0.181641H12.0058Z" fill="url(#paint1_radial_1194_2141)"/>
<path d="M12.0004 3.27246C9.63027 3.27246 9.33282 3.28282 8.40194 3.32519C7.47288 3.36773 6.83872 3.51482 6.28383 3.73063C5.70984 3.95353 5.22295 4.2517 4.73787 4.73696C4.25243 5.22204 3.95426 5.70893 3.73063 6.28273C3.51427 6.83781 3.367 7.47215 3.32519 8.40085C3.28355 9.33173 3.27264 9.62936 3.27264 11.9995C3.27264 14.3696 3.28319 14.6661 3.32537 15.597C3.3681 16.5261 3.51518 17.1602 3.73081 17.7151C3.9539 18.2891 4.25207 18.776 4.73733 19.2611C5.22222 19.7465 5.70912 20.0454 6.28273 20.2683C6.83799 20.4841 7.47233 20.6312 8.40122 20.6737C9.3321 20.7161 9.62936 20.7265 11.9993 20.7265C14.3696 20.7265 14.6661 20.7161 15.597 20.6737C16.5261 20.6312 17.161 20.4841 17.7162 20.2683C18.29 20.0454 18.7762 19.7465 19.2611 19.2611C19.7465 18.776 20.0447 18.2891 20.2683 17.7153C20.4828 17.1602 20.6301 16.5259 20.6738 15.5972C20.7156 14.6663 20.7265 14.3696 20.7265 11.9995C20.7265 9.62936 20.7156 9.33191 20.6738 8.40103C20.6301 7.47197 20.4828 6.83781 20.2683 6.28291C20.0447 5.70893 19.7465 5.22204 19.2611 4.73696C18.7756 4.25152 18.2902 3.95335 17.7157 3.73063C17.1593 3.51482 16.5248 3.36773 15.5957 3.32519C14.6648 3.28282 14.3685 3.27246 11.9977 3.27246H12.0004ZM11.2175 4.84514C11.4499 4.84478 11.7091 4.84514 12.0004 4.84514C14.3305 4.84514 14.6067 4.8535 15.5268 4.89532C16.3777 4.93423 16.8395 5.07641 17.1471 5.19586C17.5544 5.35403 17.8447 5.54312 18.15 5.84856C18.4555 6.15401 18.6445 6.44491 18.8031 6.85217C18.9225 7.15943 19.0649 7.62124 19.1036 8.47212C19.1454 9.39209 19.1545 9.66845 19.1545 11.9975C19.1545 14.3265 19.1454 14.6028 19.1036 15.5228C19.0647 16.3737 18.9225 16.8355 18.8031 17.1428C18.6449 17.55 18.4555 17.84 18.15 18.1453C17.8446 18.4507 17.5546 18.6398 17.1471 18.798C16.8399 18.918 16.3777 19.0598 15.5268 19.0987C14.6068 19.1405 14.3305 19.1496 12.0004 19.1496C9.67009 19.1496 9.39391 19.1405 8.47394 19.0987C7.62306 19.0594 7.16125 18.9173 6.85344 18.7978C6.44618 18.6396 6.15528 18.4505 5.84984 18.1451C5.54439 17.8397 5.35531 17.5495 5.19677 17.142C5.07732 16.8348 4.93496 16.373 4.89623 15.5221C4.85441 14.6021 4.84605 14.3258 4.84605 11.9953C4.84605 9.66481 4.85441 9.38991 4.89623 8.46994C4.93514 7.61906 5.07732 7.15725 5.19677 6.84962C5.35494 6.44236 5.54439 6.15146 5.84984 5.84602C6.15528 5.54057 6.44618 5.35149 6.85344 5.19295C7.16107 5.07295 7.62306 4.93114 8.47394 4.89205C9.27901 4.85569 9.591 4.84478 11.2175 4.84296V4.84514ZM16.6588 6.29419C16.0806 6.29419 15.6115 6.76272 15.6115 7.34106C15.6115 7.91923 16.0806 8.38831 16.6588 8.38831C17.2369 8.38831 17.706 7.91923 17.706 7.34106C17.706 6.7629 17.2369 6.29382 16.6588 6.29382V6.29419ZM12.0004 7.51779C9.52536 7.51779 7.5187 9.52445 7.5187 11.9995C7.5187 14.4745 9.52536 16.4802 12.0004 16.4802C14.4754 16.4802 16.4813 14.4745 16.4813 11.9995C16.4813 9.52445 14.4752 7.51779 12.0002 7.51779H12.0004ZM12.0004 9.09047C13.6069 9.09047 14.9094 10.3928 14.9094 11.9995C14.9094 13.606 13.6069 14.9085 12.0004 14.9085C10.3937 14.9085 9.09138 13.606 9.09138 11.9995C9.09138 10.3928 10.3937 9.09047 12.0004 9.09047Z" fill="white"/>
</g>
<defs>
<radialGradient id="paint0_radial_1194_2141" cx="0" cy="0" r="1" gradientUnits="userSpaceOnUse" gradientTransform="translate(6.46132 25.6356) rotate(-90) scale(23.4227 21.7909)">
<stop stop-color="#FFDD55"/>
<stop offset="0.1" stop-color="#FFDD55"/>
<stop offset="0.5" stop-color="#FF543E"/>
<stop offset="1" stop-color="#C837AB"/>
</radialGradient>
<radialGradient id="paint1_radial_1194_2141" cx="0" cy="0" r="1" gradientUnits="userSpaceOnUse" gradientTransform="translate(-3.77796 1.88417) rotate(78.6776) scale(10.4701 43.1693)">
<stop stop-color="#3771C8"/>
<stop offset="0.128" stop-color="#3771C8"/>
<stop offset="1" stop-color="#6600FF" stop-opacity="0"/>
</radialGradient>
<clipPath id="clip0_1194_2141">
<rect width="24" height="23.9993" fill="white"/>
</clipPath>
</defs>
</svg>
