<svg width="18" height="18" viewBox="0 0 18 18" fill="none" xmlns="http://www.w3.org/2000/svg">
<rect width="18" height="18" fill="#131415"/>
<g clip-path="url(#clip0_690_56)">
<rect width="1280" height="7213" transform="translate(-1135 -71)" fill="white"/>
<g clip-path="url(#clip1_690_56)">
<path d="M9.00579 -2.81818C4.07103 -2.81818 2.6278 -2.81309 2.34726 -2.78982C1.33457 -2.70564 0.704405 -2.54619 0.0178804 -2.20438C-0.511194 -1.94166 -0.928455 -1.63713 -1.34026 -1.21023C-2.09024 -0.431711 -2.54477 0.526078 -2.70931 1.66459C-2.78931 2.2173 -2.81258 2.33002 -2.81731 5.15321C-2.81913 6.09427 -2.81731 7.33278 -2.81731 8.994C-2.81731 13.9248 -2.81185 15.3665 -2.78822 15.6465C-2.7064 16.632 -2.55186 17.2519 -2.2246 17.9301C-1.59916 19.2282 -0.404652 20.2028 1.00258 20.5664C1.48984 20.6918 2.028 20.7609 2.71889 20.7936C3.01161 20.8064 5.99515 20.8155 8.98052 20.8155C11.9659 20.8155 14.9513 20.8118 15.2367 20.7973C16.0367 20.7596 16.5012 20.6973 17.0148 20.5646C18.4311 20.1991 19.6038 19.2391 20.242 17.9228C20.5629 17.261 20.7256 16.6174 20.7993 15.6834C20.8153 15.4798 20.822 12.2332 20.822 8.99091C20.822 5.7481 20.8147 2.50747 20.7987 2.30384C20.7242 1.35478 20.5614 0.716618 20.2302 0.042093C19.9584 -0.510072 19.6566 -0.922423 19.2184 -1.34405C18.4364 -2.09093 17.4801 -2.54546 16.3405 -2.70982C15.7883 -2.78964 15.6783 -2.81327 12.8529 -2.81818H9.00579Z" fill="url(#paint0_radial_690_56)"/>
<path d="M9.00579 -2.81818C4.07103 -2.81818 2.6278 -2.81309 2.34726 -2.78982C1.33457 -2.70564 0.704405 -2.54619 0.0178804 -2.20438C-0.511194 -1.94166 -0.928455 -1.63713 -1.34026 -1.21023C-2.09024 -0.431711 -2.54477 0.526078 -2.70931 1.66459C-2.78931 2.2173 -2.81258 2.33002 -2.81731 5.15321C-2.81913 6.09427 -2.81731 7.33278 -2.81731 8.994C-2.81731 13.9248 -2.81185 15.3665 -2.78822 15.6465C-2.7064 16.632 -2.55186 17.2519 -2.2246 17.9301C-1.59916 19.2282 -0.404652 20.2028 1.00258 20.5664C1.48984 20.6918 2.028 20.7609 2.71889 20.7936C3.01161 20.8064 5.99515 20.8155 8.98052 20.8155C11.9659 20.8155 14.9513 20.8118 15.2367 20.7973C16.0367 20.7596 16.5012 20.6973 17.0148 20.5646C18.4311 20.1991 19.6038 19.2391 20.242 17.9228C20.5629 17.261 20.7256 16.6174 20.7993 15.6834C20.8153 15.4798 20.822 12.2332 20.822 8.99091C20.822 5.7481 20.8147 2.50747 20.7987 2.30384C20.7242 1.35478 20.5614 0.716618 20.2302 0.042093C19.9584 -0.510072 19.6566 -0.922423 19.2184 -1.34405C18.4364 -2.09093 17.4801 -2.54546 16.3405 -2.70982C15.7883 -2.78964 15.6783 -2.81327 12.8529 -2.81818H9.00579Z" fill="url(#paint1_radial_690_56)"/>
<path d="M9.00032 0.272629C6.63021 0.272629 6.33276 0.282992 5.40188 0.325355C4.47282 0.367899 3.83866 0.514985 3.28376 0.730797C2.70978 0.953699 2.22289 1.25187 1.73781 1.73713C1.25237 2.22221 0.954199 2.7091 0.730569 3.2829C0.514212 3.83797 0.366944 4.47232 0.325127 5.40102C0.283492 6.3319 0.272583 6.62953 0.272583 8.99964C0.272583 11.3697 0.283128 11.6663 0.325309 12.5972C0.368035 13.5262 0.515121 14.1604 0.730751 14.7153C0.953835 15.2893 1.25201 15.7762 1.73727 16.2612C2.22216 16.7467 2.70905 17.0456 3.28267 17.2685C3.83793 17.4843 4.47227 17.6314 5.40115 17.6739C6.33204 17.7163 6.6293 17.7266 8.99923 17.7266C11.3695 17.7266 11.6661 17.7163 12.5969 17.6739C13.526 17.6314 14.1609 17.4843 14.7161 17.2685C15.2899 17.0456 15.7761 16.7467 16.261 16.2612C16.7464 15.7762 17.0446 15.2893 17.2682 14.7155C17.4828 14.1604 17.6301 13.526 17.6737 12.5973C17.7155 11.6665 17.7264 11.3697 17.7264 8.99964C17.7264 6.62953 17.7155 6.33208 17.6737 5.4012C17.6301 4.47214 17.4828 3.83797 17.2682 3.28308C17.0446 2.7091 16.7464 2.22221 16.261 1.73713C15.7756 1.25169 15.2901 0.953517 14.7156 0.730797C14.1593 0.514985 13.5247 0.367899 12.5957 0.325355C11.6648 0.282992 11.3684 0.272629 8.99759 0.272629H9.00032ZM8.21743 1.84531C8.44979 1.84494 8.70905 1.84531 9.00032 1.84531C11.3304 1.84531 11.6066 1.85367 12.5268 1.89549C13.3776 1.9344 13.8394 2.07657 14.1471 2.19603C14.5543 2.3542 14.8447 2.54329 15.15 2.84873C15.4554 3.15418 15.6445 3.44508 15.803 3.85234C15.9225 4.1596 16.0648 4.62141 16.1036 5.47229C16.1454 6.39226 16.1545 6.66862 16.1545 8.99764C16.1545 11.3267 16.1454 11.603 16.1036 12.523C16.0646 13.3739 15.9225 13.8357 15.803 14.1429C15.6448 14.5502 15.4554 14.8402 15.15 15.1454C14.8445 15.4509 14.5545 15.64 14.1471 15.7982C13.8398 15.9182 13.3776 16.06 12.5268 16.0989C11.6068 16.1407 11.3304 16.1498 9.00032 16.1498C6.67002 16.1498 6.39385 16.1407 5.47388 16.0989C4.623 16.0596 4.16119 15.9174 3.85338 15.798C3.44612 15.6398 3.15522 15.4507 2.84978 15.1453C2.54433 14.8398 2.35525 14.5497 2.19671 14.1422C2.07726 13.8349 1.9349 13.3731 1.89617 12.5223C1.85435 11.6023 1.84599 11.3259 1.84599 8.99545C1.84599 6.66498 1.85435 6.39008 1.89617 5.47011C1.93508 4.61922 2.07726 4.15742 2.19671 3.84979C2.35488 3.44253 2.54433 3.15163 2.84978 2.84619C3.15522 2.54074 3.44612 2.35166 3.85338 2.19312C4.16101 2.07312 4.623 1.93131 5.47388 1.89222C6.27895 1.85585 6.59094 1.84494 8.21743 1.84313V1.84531ZM13.6587 3.29435C13.0806 3.29435 12.6115 3.76289 12.6115 4.34123C12.6115 4.9194 13.0806 5.38847 13.6587 5.38847C14.2369 5.38847 14.706 4.9194 14.706 4.34123C14.706 3.76307 14.2369 3.29399 13.6587 3.29399V3.29435ZM9.00032 4.51795C6.5253 4.51795 4.51864 6.52462 4.51864 8.99964C4.51864 11.4747 6.5253 13.4804 9.00032 13.4804C11.4753 13.4804 13.4813 11.4747 13.4813 8.99964C13.4813 6.52462 11.4752 4.51795 9.00014 4.51795H9.00032ZM9.00032 6.09063C10.6068 6.09063 11.9093 7.39296 11.9093 8.99964C11.9093 10.6061 10.6068 11.9086 9.00032 11.9086C7.39364 11.9086 6.09132 10.6061 6.09132 8.99964C6.09132 7.39296 7.39364 6.09063 9.00032 6.09063Z" fill="white"/>
</g>
</g>
<defs>
<radialGradient id="paint0_radial_690_56" cx="0" cy="0" r="1" gradientUnits="userSpaceOnUse" gradientTransform="translate(3.46132 22.6358) rotate(-90) scale(23.4227 21.7909)">
<stop stop-color="#FFDD55"/>
<stop offset="0.1" stop-color="#FFDD55"/>
<stop offset="0.5" stop-color="#FF543E"/>
<stop offset="1" stop-color="#C837AB"/>
</radialGradient>
<radialGradient id="paint1_radial_690_56" cx="0" cy="0" r="1" gradientUnits="userSpaceOnUse" gradientTransform="translate(-6.77796 -1.11566) rotate(78.6776) scale(10.4701 43.1693)">
<stop stop-color="#3771C8"/>
<stop offset="0.128" stop-color="#3771C8"/>
<stop offset="1" stop-color="#6600FF" stop-opacity="0"/>
</radialGradient>
<clipPath id="clip0_690_56">
<rect width="1280" height="7213" fill="white" transform="translate(-1135 -71)"/>
</clipPath>
<clipPath id="clip1_690_56">
<rect width="24" height="23.9993" fill="white" transform="translate(-3 -3)"/>
</clipPath>
</defs>
</svg>
