<svg width="24" height="20" viewBox="0 0 24 20" fill="none" xmlns="http://www.w3.org/2000/svg">
<rect width="24" height="20" fill="#131415"/>
<g clip-path="url(#clip0_690_56)">
<rect width="1280" height="7213" transform="translate(-1176 -70)" fill="white"/>
<path fill-rule="evenodd" clip-rule="evenodd" d="M1.40918 0.85804C1.40918 0.85804 5.51197 6.00543 11.7621 6.31501C11.7621 6.31501 10.4864 2.90106 14.3 0.560923C14.3 0.560923 17.3982 -1.27591 20.3883 1.6983C20.3883 1.6983 21.7369 1.63231 23.3624 0.425897C23.3624 0.425897 23.6017 1.5359 21.482 3.32134C21.482 3.32134 22.6613 3.22494 24 2.33997C24 2.33997 23.7451 3.86813 21.5616 4.97814C21.5616 4.97814 22.226 17.069 10.5358 19.7154C10.5358 19.7154 4.35378 21.1234 0 17.676C0 17.676 4.61832 18.1614 7.0718 15.5636C7.0718 15.5636 3.99312 15.855 2.47758 12.1889C2.47758 12.1889 4.01692 12.4559 4.64242 11.9462C4.64242 11.9462 1.39502 11.9703 0.673404 7.06617C0.673404 7.06617 1.99641 7.74586 2.86234 7.62452C2.86234 7.62452 -0.81381 5.33273 1.40918 0.85804Z" fill="#1DA1F2"/>
</g>
<defs>
<clipPath id="clip0_690_56">
<rect width="1280" height="7213" fill="white" transform="translate(-1176 -70)"/>
</clipPath>
</defs>
</svg>
