<svg width="133" height="36" viewBox="0 0 133 36" fill="none" xmlns="http://www.w3.org/2000/svg">
<rect width="133" height="36" fill="#131415"/>
<g clip-path="url(#clip0_690_56)">
<rect width="1280" height="7213" transform="translate(-915 -62)" fill="white"/>
<rect width="133" height="36" rx="18" fill="#6E51E0"/>
<path d="M19.7727 23C23.0966 23 25.0675 20.9439 25.0675 17.5348C25.0675 14.1364 23.0966 12.0909 19.8473 12.0909H16.076V23H19.7727ZM18.0522 21.2901V13.8008H19.7354C21.9513 13.8008 23.1072 15.0366 23.1072 17.5348C23.1072 20.0437 21.9513 21.2901 19.6768 21.2901H18.0522ZM30.1288 23.1598C32.5258 23.1598 34.0493 21.4712 34.0493 18.9411C34.0493 16.4055 32.5258 14.7116 30.1288 14.7116C27.7318 14.7116 26.2083 16.4055 26.2083 18.9411C26.2083 21.4712 27.7318 23.1598 30.1288 23.1598ZM30.1395 21.6151C28.8131 21.6151 28.1632 20.4325 28.1632 18.9357C28.1632 17.4389 28.8131 16.2404 30.1395 16.2404C31.4445 16.2404 32.0944 17.4389 32.0944 18.9357C32.0944 20.4325 31.4445 21.6151 30.1395 21.6151ZM36.8547 23H38.8682L40.4023 17.4709H40.5142L42.0483 23H44.0564L46.3735 14.8182H44.4027L42.9858 20.5391H42.9059L41.4357 14.8182H39.4914L38.0213 20.571H37.9467L36.5085 14.8182H34.5429L36.8547 23ZM49.3481 18.206C49.3481 17.0234 50.0619 16.3416 51.0793 16.3416C52.0754 16.3416 52.672 16.9968 52.672 18.0888V23H54.6003V17.7905C54.6056 15.8303 53.487 14.7116 51.7984 14.7116C50.5733 14.7116 49.7317 15.2976 49.3588 16.2085H49.2629V14.8182H47.4199V23H49.3481V18.206ZM58.1888 12.0909H56.2605V23H58.1888V12.0909ZM63.4405 23.1598C65.8375 23.1598 67.361 21.4712 67.361 18.9411C67.361 16.4055 65.8375 14.7116 63.4405 14.7116C61.0435 14.7116 59.5201 16.4055 59.5201 18.9411C59.5201 21.4712 61.0435 23.1598 63.4405 23.1598ZM63.4512 21.6151C62.1248 21.6151 61.475 20.4325 61.475 18.9357C61.475 17.4389 62.1248 16.2404 63.4512 16.2404C64.7562 16.2404 65.4061 17.4389 65.4061 18.9357C65.4061 20.4325 64.7562 21.6151 63.4512 21.6151ZM71.052 23.1651C72.3357 23.1651 73.1028 22.5632 73.4544 21.8761H73.5183V23H75.372V17.5241C75.372 15.3615 73.6088 14.7116 72.0481 14.7116C70.3276 14.7116 69.0066 15.4787 68.5804 16.9702L70.3808 17.2259C70.5726 16.6665 71.1159 16.1871 72.0588 16.1871C72.9536 16.1871 73.4437 16.6452 73.4437 17.4496V17.4815C73.4437 18.0355 72.8631 18.0621 71.4195 18.2166C69.8322 18.3871 68.3141 18.8612 68.3141 20.7042C68.3141 22.3129 69.4913 23.1651 71.052 23.1651ZM71.5527 21.7482C70.7484 21.7482 70.1731 21.3807 70.1731 20.6722C70.1731 19.9318 70.8176 19.6229 71.6806 19.5004C72.1866 19.4311 73.1987 19.3033 73.449 19.1009V20.065C73.449 20.9759 72.7139 21.7482 71.5527 21.7482ZM80.0471 23.1438C81.4534 23.1438 82.0872 22.3075 82.3909 21.7109H82.508V23H84.4044V12.0909H82.4708V16.1712H82.3909C82.0979 15.5799 81.496 14.7116 80.0524 14.7116C78.1615 14.7116 76.6753 16.1925 76.6753 18.9197C76.6753 21.6151 78.1188 23.1438 80.0471 23.1438ZM80.5851 21.5618C79.312 21.5618 78.6409 20.4432 78.6409 18.9091C78.6409 17.3857 79.3014 16.2937 80.5851 16.2937C81.8262 16.2937 82.508 17.3217 82.508 18.9091C82.508 20.4964 81.8156 21.5618 80.5851 21.5618ZM91.066 23L91.9662 20.31H96.0678L96.9733 23H99.0827L95.2368 12.0909H92.7972L88.9566 23H91.066ZM92.4989 18.7227L93.9744 14.3281H94.0596L95.5351 18.7227H92.4989ZM100.134 26.0682H102.063V21.7109H102.142C102.446 22.3075 103.08 23.1438 104.486 23.1438C106.415 23.1438 107.858 21.6151 107.858 18.9197C107.858 16.1925 106.372 14.7116 104.481 14.7116C103.037 14.7116 102.435 15.5799 102.142 16.1712H102.031V14.8182H100.134V26.0682ZM102.025 18.9091C102.025 17.3217 102.707 16.2937 103.948 16.2937C105.232 16.2937 105.892 17.3857 105.892 18.9091C105.892 20.4432 105.221 21.5618 103.948 21.5618C102.718 21.5618 102.025 20.4964 102.025 18.9091ZM109.209 26.0682H111.138V21.7109H111.217C111.521 22.3075 112.155 23.1438 113.561 23.1438C115.49 23.1438 116.933 21.6151 116.933 18.9197C116.933 16.1925 115.447 14.7116 113.556 14.7116C112.112 14.7116 111.51 15.5799 111.217 16.1712H111.106V14.8182H109.209V26.0682ZM111.1 18.9091C111.1 17.3217 111.782 16.2937 113.023 16.2937C114.307 16.2937 114.967 17.3857 114.967 18.9091C114.967 20.4432 114.296 21.5618 113.023 21.5618C111.793 21.5618 111.1 20.4964 111.1 18.9091Z" fill="white"/>
</g>
<defs>
<clipPath id="clip0_690_56">
<rect width="1280" height="7213" fill="white" transform="translate(-915 -62)"/>
</clipPath>
</defs>
</svg>
